<svg id="Layer_1" xmlns="http://www.w3.org/2000/svg" viewBox="0 0 29 36.5"><style>.st0{fill:#fff}</style><path class="st0" d="M21.2.5c-.3-.3-.7-.5-1.1-.5H8.8C8 .1 7.4.7 7.4 1.6v15.5c0 3.4 2.4 6.3 5.6 7v9.5h-1.9c-.8 0-1.5.7-1.5 1.5s.7 1.5 1.5 1.5h6.8c.8 0 1.5-.7 1.5-1.5s-.7-1.5-1.5-1.5H16V24c3.2-.7 5.6-3.5 5.6-7V1.5c0-.4-.1-.8-.4-1zM18.6 3v4h-8.2V3.1l8.2-.1zm-4.1 18.2c-2.3 0-4.1-1.9-4.1-4.1V10h8.2v7.1c0 2.2-1.8 4.1-4.1 4.1z"/><circle class="st0" cx="16.1" cy="13.1" r="1.5"/><path class="st0" d="M13.6 16c-.8 0-1.5.7-1.5 1.5s.7 1.5 1.5 1.5 1.5-.7 1.5-1.5-.6-1.5-1.5-1.5z"/></svg>