<svg id="Layer_1" xmlns="http://www.w3.org/2000/svg" viewBox="0 0 31 34"><style>.st0{fill:#fff}</style><path class="st0" d="M24 11.1C23.5 4.9 18.3 0 12 0 5.4 0 0 5.4 0 12c0 4.8 2.9 9 7 10.9.5 6.2 5.7 11.1 12 11.1 6.6 0 12-5.4 12-12 0-4.8-2.9-9-7-10.9zM3 12c0-5 4-9 9-9 4.3 0 8 3.1 8.8 7.2-.6-.1-1.2-.2-1.8-.2-5.8 0-10.7 4.1-11.8 9.6C4.7 18 3 15.2 3 12zm17.9 1.2c-.6 4.4-4.3 7.8-8.9 7.8-.7 0-1.3-.1-1.9-.2.6-4.4 4.4-7.8 8.9-7.8.7 0 1.3.1 1.9.2zM19 31c-4.3 0-8-3.1-8.8-7.2.6.1 1.2.2 1.8.2 5.8 0 10.7-4.1 11.8-9.6C26.3 16 28 18.8 28 22c0 5-4 9-9 9z"/></svg>