<?xml version="1.0" encoding="utf-8"?>
<!-- Generator: Adobe Illustrator 22.0.1, SVG Export Plug-In . SVG Version: 6.00 Build 0)  -->
<svg version="1.1" id="Layer_1" xmlns="http://www.w3.org/2000/svg" xmlns:xlink="http://www.w3.org/1999/xlink" x="0px" y="0px"
	 viewBox="0 0 29 36.5" style="enable-background:new 0 0 29 36.5;" xml:space="preserve">
<style type="text/css">
	.st0{fill:#FFFFFF;}
</style>
<path class="st0" d="M28.3,0.2c-0.4-0.3-1-0.3-1.4-0.1l-26,11C0.4,11.4,0,11.9,0,12.5V35c0,0.8,0.7,1.5,1.5,1.5h26
	c0.8,0,1.5-0.7,1.5-1.5V1.5C29,1,28.7,0.5,28.3,0.2z M3,21.5h23V26H3V21.5z M3,18.5V14h23v4.5H3z M26,11H8.9L26,3.8V11z M3,33.5V29
	h23v4.5H3z"/>
</svg>
