<?xml version="1.0" encoding="utf-8"?>
<!-- Generator: Adobe Illustrator 22.0.1, SVG Export Plug-In . SVG Version: 6.00 Build 0)  -->
<svg version="1.1" id="Layer_1" xmlns="http://www.w3.org/2000/svg" xmlns:xlink="http://www.w3.org/1999/xlink" x="0px" y="0px"
	 viewBox="0 0 29 36.5" style="enable-background:new 0 0 29 36.5;" xml:space="preserve">
<style type="text/css">
	.st0{fill:#FFFFFF;}
</style>
<g>
	<path class="st0" d="M21.2,0.5C20.9,0.2,20.5,0,20.1,0c0,0,0,0,0,0l-11.3,0C8,0.1,7.4,0.7,7.4,1.6v15.5c0,3.4,2.4,6.3,5.6,7v9.5
		h-1.9c-0.8,0-1.5,0.7-1.5,1.5s0.7,1.5,1.5,1.5h6.8c0.8,0,1.5-0.7,1.5-1.5s-0.7-1.5-1.5-1.5H16V24c3.2-0.7,5.6-3.5,5.6-7V1.5
		C21.6,1.1,21.5,0.7,21.2,0.5z M18.6,3v4h-8.2V3.1L18.6,3z M14.5,21.2c-2.3,0-4.1-1.9-4.1-4.1V10h8.2v7.1
		C18.6,19.3,16.8,21.2,14.5,21.2z"/>
	<circle class="st0" cx="16.1" cy="13.1" r="1.5"/>
	<path class="st0" d="M13.6,16c-0.8,0-1.5,0.7-1.5,1.5s0.7,1.5,1.5,1.5s1.5-0.7,1.5-1.5S14.5,16,13.6,16z"/>
</g>
</svg>
