<?xml version="1.0" encoding="utf-8"?>
<!-- Generator: Adobe Illustrator 22.0.1, SVG Export Plug-In . SVG Version: 6.00 Build 0)  -->
<svg version="1.1" id="Layer_1" xmlns="http://www.w3.org/2000/svg" xmlns:xlink="http://www.w3.org/1999/xlink" x="0px" y="0px"
	 viewBox="0 0 31 34" style="enable-background:new 0 0 31 34;" xml:space="preserve">
<style type="text/css">
	.st0{fill:#FFFFFF;}
</style>
<path class="st0" d="M24,11.1C23.5,4.9,18.3,0,12,0C5.4,0,0,5.4,0,12c0,4.8,2.9,9,7,10.9C7.5,29.1,12.7,34,19,34c6.6,0,12-5.4,12-12
	C31,17.2,28.1,13,24,11.1z M3,12c0-5,4-9,9-9c4.3,0,8,3.1,8.8,7.2C20.2,10.1,19.6,10,19,10c-5.8,0-10.7,4.1-11.8,9.6
	C4.7,18,3,15.2,3,12z M20.9,13.2C20.3,17.6,16.6,21,12,21c-0.7,0-1.3-0.1-1.9-0.2c0.6-4.4,4.4-7.8,8.9-7.8
	C19.7,13,20.3,13.1,20.9,13.2z M19,31c-4.3,0-8-3.1-8.8-7.2c0.6,0.1,1.2,0.2,1.8,0.2c5.8,0,10.7-4.1,11.8-9.6C26.3,16,28,18.8,28,22
	C28,27,24,31,19,31z"/>
</svg>
